<svg width="32" height="32" viewBox="0 0 32 32" fill="none" xmlns="http://www.w3.org/2000/svg">
  <defs>
    <linearGradient id="faviconGradient" x1="0%" y1="0%" x2="100%" y2="100%">
      <stop offset="0%" style="stop-color:#ef4444;stop-opacity:1" />
      <stop offset="100%" style="stop-color:#dc2626;stop-opacity:1" />
    </linearGradient>
  </defs>
  
  <!-- Main Circle Background -->
  <circle cx="16" cy="16" r="15" fill="url(#faviconGradient)" stroke="white" stroke-width="1"/>
  
  <!-- Inner Circle -->
  <circle cx="16" cy="16" r="10" fill="none" stroke="white" stroke-width="1" opacity="0.8"/>
  
  <!-- Stylized Car/Wrench Symbol -->
  <g transform="translate(16, 16)">
    <!-- Car Body -->
    <path d="M-6 -2 Q-4 -4 -2 -3 L2 -3 Q4 -4 6 -3 L8 -2 Q9 -1 9 0 L9 3 Q9 4 8 4 L6 4 Q5 5 3 5 L-3 5 Q-5 5 -6 4 L-8 4 Q-9 4 -9 3 L-9 0 Q-9 -1 -8 -2 Z" 
          fill="white" opacity="0.9"/>
    
    <!-- Wrench Handle -->
    <rect x="-1" y="-6" width="2" height="4" rx="1" fill="white" opacity="0.7"/>
    
    <!-- Wrench Head -->
    <circle cx="0" cy="-7" r="1.5" fill="white" opacity="0.7"/>
  </g>
</svg>